<?xml version="1.0" encoding="utf-8"?>
<!-- Generator: Adobe Illustrator 21.0.2, SVG Export Plug-In . SVG Version: 6.00 Build 0)  -->
<svg version="1.1" id="Layer_1" xmlns="http://www.w3.org/2000/svg" xmlns:xlink="http://www.w3.org/1999/xlink" x="0px" y="0px"
	 viewBox="0 0 3021.5 1556" style="enable-background:new 0 0 3021.5 1556;" xml:space="preserve">
<style type="text/css">
	.st0{fill:#222222;stroke:#222222;stroke-width:9;stroke-miterlimit:10;}
	.st1{fill:#333333;stroke:#333333;stroke-width:10;stroke-miterlimit:10;}
	.st2{fill:#C49F4D;stroke:#C49F4D;stroke-width:9;stroke-miterlimit:10;}
	.st3{fill:#E8C363;stroke:#E8C363;stroke-width:10;stroke-miterlimit:10;}
</style>
<g>
	<path class="st0" d="M2692.6,218.4c-68.4,0-136.8-136.6-205.2-136.6c-44.1,0-102.6,68.3-171,68.3c-102.6,0-68.4-102.5-171-102.5
		c-102.6,0-102.6,102.5-171,102.5c-34.2,0-75.8-37.2-106.3-6.8c-13.6,13.6-21.5,33.8-25.9,61c-5.7,35.6-47.9,51.3-74.8,27.3
		l-0.6-0.5L1626,104.4c-29.8-26.8-76.9-29.8-110.5-7.1l-75.9,51.3c-33.7,22.7-80.8,19.7-110.5-7.1l-33.3-30
		c-32.9-29.6-86.7-29.6-119.6,0l-3.5,3.1c-36.8,33.1-86.5,41.2-135.7,35.5c-0.1,0-0.2,0-0.3,0c-41.9-3.9-65.3,65.3-136.8,68.3
		c-38.6,1.6-102.6-102.5-171-102.5S626.3,218.4,523.7,218.4c-68.4,0-136.8-136.6-205.2-136.6c-44.1,0-102.6,68.3-171,68.3
		c-88.5,0-82.3,53.7-142.7,33.4v-43c60.5,20.3,54.3-33.4,142.7-33.4c68.4,0,126.8-68.3,171-68.3c68.4,0,136.8,136.6,205.2,136.6
		c102.6,0,136.8-102.5,205.2-102.5s132.4,104.1,171,102.5c71.5-3,94.9-72.2,136.8-68.3c0.1,0,0.2,0,0.3,0
		c49.2,5.8,98.9-2.3,135.7-35.5l3.5-3.1c32.9-29.6,86.7-29.6,119.6,0l33.3,30c29.8,26.8,76.9,29.8,110.5,7.1l75.9-51.3
		c33.7-22.7,80.8-19.7,110.5,7.1l140.7,126.7l0.6,0.5c26.9,24,49-15.2,58.9-42.3c9.5-25.9,12-36,41.8-46.1
		c40.8-13.8,72.1,6.8,106.3,6.8c68.4,0,68.4-102.5,171-102.5c102.6,0,68.4,102.5,171,102.5c68.4,0,126.8-68.3,171-68.3
		c68.4,0,136.8,136.6,205.2,136.6c102.6,0,136.8-102.5,205.2-102.5c43,0,84.2,41.1,118.5,71.2v43c-34.3-30.1-75.5-71.2-118.5-71.2
		C2829.2,115.9,2795.1,218.4,2692.6,218.4z"/>
	<path class="st1" d="M5.2,183.5c60.5,20.3,54.3-33.4,142.7-33.4c68.4,0,126.8-68.3,171-68.3c68.4,0,136.8,136.6,205.2,136.6
		c102.6,0,136.8-102.5,205.2-102.5s132.4,104.1,171,102.5c71.5-3,94.9-72.2,136.8-68.3c0.1,0,0.2,0,0.3,0
		c49.2,5.8,98.9-2.3,135.7-35.5l3.5-3.1c32.9-29.6,86.7-29.6,119.6,0l33.3,30c29.8,26.8,76.9,29.8,110.5,7.1l75.9-51.3
		c33.7-22.7,80.8-19.7,110.5,7.1L1767,231.1l0.6,0.5c26.9,24,69.1,8.2,74.8-27.3c4.3-27.2,12.2-47.4,25.9-61
		c30.5-30.4,72.1,6.8,106.3,6.8c68.4,0,68.4-102.5,171-102.5c102.6,0,68.4,102.5,171,102.5c68.4,0,126.8-68.3,171-68.3
		c68.4,0,136.8,136.6,205.2,136.6c102.6,0,136.8-102.5,205.2-102.5c43,0,84.2,41.1,118.5,71.2v1216.1H5.2V183.5z"/>
</g>
<g>
	<path class="st2" d="M123.8,815.2c-43,0-84.2,41.1-118.5,71.2v-43c34.3-30.1,75.5-71.2,118.5-71.2c68.4,0,102.6,102.5,205.2,102.5
		c68.4,0,136.8-136.6,205.2-136.6c44.2,0,102.6,68.3,171,68.3c102.6,0,68.4-102.5,171-102.5s102.6,102.5,171,102.5
		c34.2,0,65.5-20.6,106.3-6.8c29.8,10.1,32.3,20.2,41.8,46.1c9.9,27.1,32,66.3,58.9,42.3l0.6-0.5l140.7-126.7
		c29.7-26.8,76.8-29.8,110.5-7.1l75.9,51.3c33.6,22.7,80.7,19.7,110.5-7.1l33.3-30c32.9-29.6,86.7-29.6,119.6,0l3.5,3.1
		c36.8,33.2,86.5,41.3,135.7,35.5c0.1,0,0.2,0,0.3,0c41.9-3.9,65.3,65.3,136.8,68.3c38.6,1.6,102.6-102.5,171-102.5
		s102.6,102.5,205.2,102.5c68.4,0,136.8-136.6,205.2-136.6c44.2,0,102.6,68.3,171,68.3c88.4,0,82.2,53.7,142.7,33.4v43
		c-60.4,20.3-54.2-33.4-142.7-33.4c-68.4,0-126.9-68.3-171-68.3c-68.4,0-136.8,136.6-205.2,136.6c-102.6,0-136.8-102.5-205.2-102.5
		s-132.4,104.1-171,102.5c-71.5-3-94.9-72.2-136.8-68.3c-0.1,0-0.2,0-0.3,0c-49.2,5.7-98.9-2.4-135.7-35.5l-3.5-3.1
		c-32.9-29.6-86.7-29.6-119.6,0l-33.3,30c-29.7,26.8-76.8,29.8-110.5,7.1l-75.9-51.3c-33.6-22.7-80.7-19.7-110.5,7.1l-140.7,126.7
		l-0.6,0.5c-26.9,24-69.1,8.3-74.8-27.3c-4.4-27.2-12.3-47.4-25.9-61c-30.5-30.4-72.1,6.8-106.3,6.8c-68.4,0-68.4-102.5-171-102.5
		s-68.4,102.5-171,102.5c-68.4,0-126.9-68.3-171-68.3c-68.4,0-136.8,136.6-205.2,136.6C226.4,917.8,192.3,815.3,123.8,815.2z"/>
	<path class="st3" d="M3016.4,1551H5V886.5c34.3-30.1,75.5-71.2,118.5-71.2c68.4,0,102.6,102.5,205.2,102.5
		c68.4,0,136.8-136.6,205.2-136.6c44.2,0,102.6,68.3,171,68.3c102.6,0,68.4-102.5,171-102.5s102.6,102.5,171,102.5
		c34.2,0,75.8-37.2,106.3-6.8c13.7,13.6,21.6,33.8,25.9,61c5.7,35.5,47.9,51.3,74.8,27.3l0.6-0.5l140.7-126.7
		c29.7-26.8,76.8-29.8,110.5-7.1l75.9,51.3c33.6,22.7,80.7,19.7,110.5-7.1l33.3-30c32.9-29.6,86.7-29.6,119.6,0l3.5,3.1
		c36.8,33.2,86.5,41.3,135.7,35.5c0.1,0,0.2,0,0.3,0c41.9-3.9,65.3,65.3,136.8,68.3c38.6,1.6,102.6-102.5,171-102.5
		s102.6,102.5,205.2,102.5c68.4,0,136.8-136.6,205.2-136.6c44.2,0,102.6,68.3,171,68.3c88.4,0,82.2,53.7,142.7,33.4V1551z"/>
</g>
</svg>
